<svg xmlns="http://www.w3.org/2000/svg" viewBox="0 0 32 32" width="32" height="32">
  <!-- Background circle -->
  <circle cx="16" cy="16" r="15" fill="#1a1a1a" stroke="#444" stroke-width="2"/>
  
  <!-- Skull outline -->
  <ellipse cx="16" cy="18" rx="10" ry="12" fill="#f5f5f5" stroke="#ddd" stroke-width="1"/>
  
  <!-- Eye sockets -->
  <ellipse cx="12" cy="14" rx="2.5" ry="3" fill="#000"/>
  <ellipse cx="20" cy="14" rx="2.5" ry="3" fill="#000"/>
  
  <!-- Glowing eyes -->
  <ellipse cx="12" cy="14" rx="1.5" ry="2" fill="#ff4444"/>
  <ellipse cx="20" cy="14" rx="1.5" ry="2" fill="#ff4444"/>
  
  <!-- Eye highlights -->
  <circle cx="12.5" cy="13.5" r="0.5" fill="#fff"/>
  <circle cx="20.5" cy="13.5" r="0.5" fill="#fff"/>
  
  <!-- Nose cavity -->
  <ellipse cx="16" cy="18" rx="1.5" ry="2" fill="#000"/>
  
  <!-- Teeth -->
  <rect x="12" y="22" width="1.5" height="3" fill="#fff" rx="0.5"/>
  <rect x="14" y="22" width="1.5" height="3" fill="#fff" rx="0.5"/>
  <rect x="16" y="22" width="1.5" height="3" fill="#fff" rx="0.5"/>
  <rect x="18" y="22" width="1.5" height="3" fill="#fff" rx="0.5"/>
  <rect x="20" y="22" width="1.5" height="3" fill="#fff" rx="0.5"/>
  
  <!-- Cracks in skull -->
  <path d="M 8 12 Q 12 10 16 12" stroke="#ccc" stroke-width="0.5" fill="none" opacity="0.6"/>
  <path d="M 16 12 Q 20 10 24 12" stroke="#ccc" stroke-width="0.5" fill="none" opacity="0.6"/>
  
  <!-- Spooky aura -->
  <circle cx="16" cy="16" r="14" fill="none" stroke="#ff4444" stroke-width="1" opacity="0.3"/>
</svg>
